<?xml version="1.0" encoding="utf-8"?>
<!-- Generator: Adobe Illustrator 18.1.0, SVG Export Plug-In . SVG Version: 6.00 Build 0)  -->
<svg version="1.1" id="Layer_1" xmlns="http://www.w3.org/2000/svg" xmlns:xlink="http://www.w3.org/1999/xlink" x="0px" y="0px"
	 viewBox="0 0 100 111.4" enable-background="new 0 0 100 111.4" xml:space="preserve">
<path fill="#0156A3" d="M100,104V59.2c0,0-6-0.7-8.6-2c-2.7-1.3-3.7-1-6-1c-2.3,0-8-3.7-9.6-5.6c-1.7-2-7.3-7.3-8.3-9
	c-1-1.7-4-5.6-4.3-7.3c-0.3-1.7-3.7-6.6-5-8c-1.3-1.3-5.6-9.3-4.3-14c1.3-4.7,2.7-6.6,3.3-8c0.7-1.3-0.3-4-4-4.3
	c-3.7-0.3-12,6.3-13.3,9c-1.3,2.7-4,9.3-3,12.3c1,3,2,12,0.3,15c-1.7,3-4.3,6-10.6,6c-6.3,0-18.9,0.3-22.3,3.3c-3.3,3-4.3,5.6-4.3,7
	c0,1.3,0.3,5,6,9c0,0-5,3.7-5,8.3c0,4.7,2.7,7.6,8.6,9.6c0,0-3.3,5-3.3,9c0,4,7,8.3,7,8.3s-2,3.7-2,6.6c0,3,4.7,6.6,6.3,7.3
	c1.7,0.7,30.6,0.3,33.2,0.7c2.7,0.3,8.6-1.7,13-3c4.3-1.3,16.3-5,20.3-5.3C88.1,102.7,97.4,102.7,100,104z"/>
</svg>
